# xmcd
#
# Track frame offsets: 
#        150
#        24722
#        38367
#        75050
#        93242
#        113772
#        139612
#        165470
#        191055
#        214565
#        237977
#        280612
#
# Disc length: 4125 seconds
#
# Revision: 8
# Processed by: cddbd v1.5.2PL0 Copyright (c) Steve Scherf et al.
# Submitted via: ExactAudioCopy v1.0b4
#
DISCID=88101b0c
DTITLE=Luther Allison - Hand Me Down My Moonshine
DYEAR=1992
DGENRE=Blues
TTITLE0=Good Morning Love
TTITLE1=One More
TTITLE2=Lightning Bolt
TTITLE3=I Need A Friend
TTITLE4=Castle
TTITLE5=She's Fine
TTITLE6=Stay With Me
TTITLE7=Farmer's Child
TTITLE8=Don't Burn My Bread
TTITLE9=You're The One
TTITLE10=Hand Me Down My Moonshine
TTITLE11=Meet Me In My Own Hometown
EXTD=Luther Allison - Acoustic guitar/Vocals, Zox - Acoustic Bass (1-9
EXTD=,11), Patrick Verbeke - Steel (10) and 12 String Guitar (5), Bern
EXTD=ard Allison - Acoustic Slide Guitar and Background Vocals (12), T
EXTD=hierry Menesclou - Harmonica (12). Arrangements: Luther Allison/Z
EXTD=ox (except 10+12). Track 10 recorded at Studio SM by Gilles Lomba
EXTD=rd. Track 12 recorded at California Music Paris, by Denis Teste. 
EXTD=Recording: L.A.'s Living Room on DAT (except 10+12). Mixed at Gui
EXTD=llaume Tell Studio by Zox, Luther Allison and Didier Lize. Digita
EXTD=l Mastering: Harmonia Mundi Acustica, BW 102 - Penguin. Produced 
EXTD=by Luther Allison for in-akustik. Executive producer: Bernhard Ro
EXTD=essle. IN-AKUSTIK INAK 1715-2.
EXTT0=
EXTT1=
EXTT2=
EXTT3=
EXTT4=
EXTT5=
EXTT6=
EXTT7=
EXTT8=
EXTT9=
EXTT10=
EXTT11=
PLAYORDER=
